START RECORD GO HERE.                                                   S      1
1H,,1H;,8H53534571,12H53534571.igs,62HDASSAULT SYSTEMES CATIA Version 5-G      1
6 Release 2017 - www.3ds.com,35HV5-6R2017_5.27.3.0.07-28-2017.22.00,32, G      2
75,6,75,15,8H53534571,1.0,2,2HMM,1000,1.0,15H20220525.104407,0.001,     G      3
10000.0,7Ha078719,3HVCN,11,0,15H20220525.104407,;                       G      4
     110       1       0       0       0       0       0       001010001D      1
     110       0       0       1       0                               0D      2
     110       2       0       0       0       0       0       001010001D      3
     110       0       0       1       0                               0D      4
     120       3       0       0       0       0       0       001010001D      5
     120       0       0       1       0                               0D      6
     124       4       0       0       0       0       0       001020001D      7
     124       0       0       1       0                               0D      8
     100       5       0       0       0       0       7       001010001D      9
     100       0       0       1       0                               0D     10
     124       6       0       0       0       0       0       001020001D     11
     124       0       0       2       0                               0D     12
     100       8       0       0       0       0      11       001010001D     13
     100       0       0       1       0                               0D     14
     110       9       0       0       0       0       0       001010001D     15
     110       0       0       1       0                               0D     16
     124      10       0       0       0       0       0       001020001D     17
     124       0       0       1       0                               0D     18
     100      11       0       0       0       0      17       001010001D     19
     100       0       0       1       0                               0D     20
     110      12       0       0       0       0       0       001010001D     21
     110       0       0       1       0                               0D     22
     102      13       0       0       0       0       0       001010001D     23
     102       0       0       1       0                               0D     24
     142      14       0       0       0       0       0       001010001D     25
     142       0       0       1       0                               0D     26
     144      15       0       0   10000       0       0       000000000D     27
     144       0       0       1       0                PartBody       0D     28
     110      16       0       0       0       0       0       001010001D     29
     110       0       0       1       0                               0D     30
     110      17       0       0       0       0       0       001010001D     31
     110       0       0       1       0                               0D     32
     120      18       0       0       0       0       0       001010001D     33
     120       0       0       1       0                               0D     34
     124      19       0       0       0       0       0       001020001D     35
     124       0       0       1       0                               0D     36
     100      20       0       0       0       0      35       001010001D     37
     100       0       0       1       0                               0D     38
     124      21       0       0       0       0       0       001020001D     39
     124       0       0       2       0                               0D     40
     100      23       0       0       0       0      39       001010001D     41
     100       0       0       1       0                               0D     42
     110      24       0       0       0       0       0       001010001D     43
     110       0       0       1       0                               0D     44
     124      25       0       0       0       0       0       001020001D     45
     124       0       0       1       0                               0D     46
     100      26       0       0       0       0      45       001010001D     47
     100       0       0       1       0                               0D     48
     110      27       0       0       0       0       0       001010001D     49
     110       0       0       1       0                               0D     50
     102      28       0       0       0       0       0       001010001D     51
     102       0       0       1       0                               0D     52
     142      29       0       0       0       0       0       001010001D     53
     142       0       0       1       0                               0D     54
     144      30       0       0   10000       0       0       000000000D     55
     144       0       0       1       0                PartBody       0D     56
     110      31       0       0       0       0       0       001010001D     57
     110       0       0       1       0                               0D     58
     110      32       0       0       0       0       0       001010001D     59
     110       0       0       1       0                               0D     60
     120      33       0       0       0       0       0       001010001D     61
     120       0       0       1       0                               0D     62
     124      34       0       0       0       0       0       001020001D     63
     124       0       0       1       0                               0D     64
     100      35       0       0       0       0      63       001010001D     65
     100       0       0       1       0                               0D     66
     110      36       0       0       0       0       0       001010001D     67
     110       0       0       1       0                               0D     68
     124      37       0       0       0       0       0       001020001D     69
     124       0       0       1       0                               0D     70
     100      38       0       0       0       0      69       001010001D     71
     100       0       0       1       0                               0D     72
     110      39       0       0       0       0       0       001010001D     73
     110       0       0       1       0                               0D     74
     102      40       0       0       0       0       0       001010001D     75
     102       0       0       1       0                               0D     76
     142      41       0       0       0       0       0       001010001D     77
     142       0       0       1       0                               0D     78
     144      42       0       0   10000       0       0       000000000D     79
     144       0       0       1       0                PartBody       0D     80
     110      43       0       0       0       0       0       001010001D     81
     110       0       0       1       0                               0D     82
     110      44       0       0       0       0       0       001010001D     83
     110       0       0       1       0                               0D     84
     120      45       0       0       0       0       0       001010001D     85
     120       0       0       1       0                               0D     86
     124      46       0       0       0       0       0       001020001D     87
     124       0       0       1       0                               0D     88
     100      47       0       0       0       0      87       001010001D     89
     100       0       0       1       0                               0D     90
     110      48       0       0       0       0       0       001010001D     91
     110       0       0       1       0                               0D     92
     124      49       0       0       0       0       0       001020001D     93
     124       0       0       1       0                               0D     94
     100      50       0       0       0       0      93       001010001D     95
     100       0       0       1       0                               0D     96
     110      51       0       0       0       0       0       001010001D     97
     110       0       0       1       0                               0D     98
     102      52       0       0       0       0       0       001010001D     99
     102       0       0       1       0                               0D    100
     142      53       0       0       0       0       0       001010001D    101
     142       0       0       1       0                               0D    102
     144      54       0       0   10000       0       0       000000000D    103
     144       0       0       1       0                PartBody       0D    104
     110      55       0       0       0       0       0       001010001D    105
     110       0       0       1       0                               0D    106
     110      56       0       0       0       0       0       001010001D    107
     110       0       0       1       0                               0D    108
     120      57       0       0       0       0       0       001010001D    109
     120       0       0       1       0                               0D    110
     110      58       0       0       0       0       0       001010001D    111
     110       0       0       1       0                               0D    112
     124      59       0       0       0       0       0       001020001D    113
     124       0       0       1       0                               0D    114
     100      60       0       0       0       0     113       001010001D    115
     100       0       0       1       0                               0D    116
     110      61       0       0       0       0       0       001010001D    117
     110       0       0       1       0                               0D    118
     124      62       0       0       0       0       0       001020001D    119
     124       0       0       1       0                               0D    120
     100      63       0       0       0       0     119       001010001D    121
     100       0       0       1       0                               0D    122
     124      64       0       0       0       0       0       001020001D    123
     124       0       0       2       0                               0D    124
     100      66       0       0       0       0     123       001010001D    125
     100       0       0       1       0                               0D    126
     102      67       0       0       0       0       0       001010001D    127
     102       0       0       1       0                               0D    128
     142      68       0       0       0       0       0       001010001D    129
     142       0       0       1       0                               0D    130
     144      69       0       0   10000       0       0       000000000D    131
     144       0       0       1       0                PartBody       0D    132
     110      70       0       0       0       0       0       001010001D    133
     110       0       0       1       0                               0D    134
     110      71       0       0       0       0       0       001010001D    135
     110       0       0       1       0                               0D    136
     120      72       0       0       0       0       0       001010001D    137
     120       0       0       1       0                               0D    138
     110      73       0       0       0       0       0       001010001D    139
     110       0       0       1       0                               0D    140
     124      74       0       0       0       0       0       001020001D    141
     124       0       0       1       0                               0D    142
     100      75       0       0       0       0     141       001010001D    143
     100       0       0       1       0                               0D    144
     110      76       0       0       0       0       0       001010001D    145
     110       0       0       1       0                               0D    146
     124      77       0       0       0       0       0       001020001D    147
     124       0       0       1       0                               0D    148
     100      78       0       0       0       0     147       001010001D    149
     100       0       0       1       0                               0D    150
     124      79       0       0       0       0       0       001020001D    151
     124       0       0       2       0                               0D    152
     100      81       0       0       0       0     151       001010001D    153
     100       0       0       1       0                               0D    154
     102      82       0       0       0       0       0       001010001D    155
     102       0       0       1       0                               0D    156
     142      83       0       0       0       0       0       001010001D    157
     142       0       0       1       0                               0D    158
     144      84       0       0   10000       0       0       000000000D    159
     144       0       0       1       0                PartBody       0D    160
     108      85       0       0       0       0       0       001010001D    161
     108       0       0       1       0                               0D    162
     124      86       0       0       0       0       0       001020001D    163
     124       0       0       1       0                               0D    164
     100      87       0       0       0       0     163       001010001D    165
     100       0       0       1       0                               0D    166
     124      88       0       0       0       0       0       001020001D    167
     124       0       0       1       0                               0D    168
     100      89       0       0       0       0     167       001010001D    169
     100       0       0       1       0                               0D    170
     102      90       0       0       0       0       0       001010001D    171
     102       0       0       1       0                               0D    172
     142      91       0       0       0       0       0       001010001D    173
     142       0       0       1       0                               0D    174
     124      92       0       0       0       0       0       001020001D    175
     124       0       0       1       0                               0D    176
     100      93       0       0       0       0     175       001010001D    177
     100       0       0       1       0                               0D    178
     124      94       0       0       0       0       0       001020001D    179
     124       0       0       1       0                               0D    180
     100      95       0       0       0       0     179       001010001D    181
     100       0       0       1       0                               0D    182
     102      96       0       0       0       0       0       001010001D    183
     102       0       0       1       0                               0D    184
     142      97       0       0       0       0       0       001010001D    185
     142       0       0       1       0                               0D    186
     124      98       0       0       0       0       0       001020001D    187
     124       0       0       1       0                               0D    188
     100      99       0       0       0       0     187       001010001D    189
     100       0       0       1       0                               0D    190
     124     100       0       0       0       0       0       001020001D    191
     124       0       0       1       0                               0D    192
     100     101       0       0       0       0     191       001010001D    193
     100       0       0       1       0                               0D    194
     102     102       0       0       0       0       0       001010001D    195
     102       0       0       1       0                               0D    196
     142     103       0       0       0       0       0       001010001D    197
     142       0       0       1       0                               0D    198
     124     104       0       0       0       0       0       001020001D    199
     124       0       0       1       0                               0D    200
     100     105       0       0       0       0     199       001010001D    201
     100       0       0       1       0                               0D    202
     124     106       0       0       0       0       0       001020001D    203
     124       0       0       1       0                               0D    204
     100     107       0       0       0       0     203       001010001D    205
     100       0       0       1       0                               0D    206
     102     108       0       0       0       0       0       001010001D    207
     102       0       0       1       0                               0D    208
     142     109       0       0       0       0       0       001010001D    209
     142       0       0       1       0                               0D    210
     124     110       0       0       0       0       0       001020001D    211
     124       0       0       1       0                               0D    212
     100     111       0       0       0       0     211       001010001D    213
     100       0       0       1       0                               0D    214
     124     112       0       0       0       0       0       001020001D    215
     124       0       0       1       0                               0D    216
     100     113       0       0       0       0     215       001010001D    217
     100       0       0       1       0                               0D    218
     102     114       0       0       0       0       0       001010001D    219
     102       0       0       1       0                               0D    220
     142     115       0       0       0       0       0       001010001D    221
     142       0       0       1       0                               0D    222
     124     116       0       0       0       0       0       001020001D    223
     124       0       0       1       0                               0D    224
     100     117       0       0       0       0     223       001010001D    225
     100       0       0       1       0                               0D    226
     124     118       0       0       0       0       0       001020001D    227
     124       0       0       1       0                               0D    228
     100     119       0       0       0       0     227       001010001D    229
     100       0       0       1       0                               0D    230
     102     120       0       0       0       0       0       001010001D    231
     102       0       0       1       0                               0D    232
     142     121       0       0       0       0       0       001010001D    233
     142       0       0       1       0                               0D    234
     144     122       0       0   10000       0       0       000000000D    235
     144       0       0       1       0                PartBody       0D    236
     108     123       0       0       0       0       0       001010001D    237
     108       0       0       1       0                               0D    238
     124     124       0       0       0       0       0       001020001D    239
     124       0       0       1       0                               0D    240
     100     125       0       0       0       0     239       001010001D    241
     100       0       0       1       0                               0D    242
     124     126       0       0       0       0       0       001020001D    243
     124       0       0       1       0                               0D    244
     100     127       0       0       0       0     243       001010001D    245
     100       0       0       1       0                               0D    246
     102     128       0       0       0       0       0       001010001D    247
     102       0       0       1       0                               0D    248
     142     129       0       0       0       0       0       001010001D    249
     142       0       0       1       0                               0D    250
     124     130       0       0       0       0       0       001020001D    251
     124       0       0       1       0                               0D    252
     100     131       0       0       0       0     251       001010001D    253
     100       0       0       1       0                               0D    254
     124     132       0       0       0       0       0       001020001D    255
     124       0       0       1       0                               0D    256
     100     133       0       0       0       0     255       001010001D    257
     100       0       0       1       0                               0D    258
     102     134       0       0       0       0       0       001010001D    259
     102       0       0       1       0                               0D    260
     142     135       0       0       0       0       0       001010001D    261
     142       0       0       1       0                               0D    262
     124     136       0       0       0       0       0       001020001D    263
     124       0       0       1       0                               0D    264
     100     137       0       0       0       0     263       001010001D    265
     100       0       0       1       0                               0D    266
     124     138       0       0       0       0       0       001020001D    267
     124       0       0       1       0                               0D    268
     100     139       0       0       0       0     267       001010001D    269
     100       0       0       1       0                               0D    270
     102     140       0       0       0       0       0       001010001D    271
     102       0       0       1       0                               0D    272
     142     141       0       0       0       0       0       001010001D    273
     142       0       0       1       0                               0D    274
     124     142       0       0       0       0       0       001020001D    275
     124       0       0       1       0                               0D    276
     100     143       0       0       0       0     275       001010001D    277
     100       0       0       1       0                               0D    278
     124     144       0       0       0       0       0       001020001D    279
     124       0       0       1       0                               0D    280
     100     145       0       0       0       0     279       001010001D    281
     100       0       0       1       0                               0D    282
     102     146       0       0       0       0       0       001010001D    283
     102       0       0       1       0                               0D    284
     142     147       0       0       0       0       0       001010001D    285
     142       0       0       1       0                               0D    286
     124     148       0       0       0       0       0       001020001D    287
     124       0       0       1       0                               0D    288
     100     149       0       0       0       0     287       001010001D    289
     100       0       0       1       0                               0D    290
     124     150       0       0       0       0       0       001020001D    291
     124       0       0       1       0                               0D    292
     100     151       0       0       0       0     291       001010001D    293
     100       0       0       1       0                               0D    294
     102     152       0       0       0       0       0       001010001D    295
     102       0       0       1       0                               0D    296
     142     153       0       0       0       0       0       001010001D    297
     142       0       0       1       0                               0D    298
     124     154       0       0       0       0       0       001020001D    299
     124       0       0       1       0                               0D    300
     100     155       0       0       0       0     299       001010001D    301
     100       0       0       1       0                               0D    302
     124     156       0       0       0       0       0       001020001D    303
     124       0       0       1       0                               0D    304
     100     157       0       0       0       0     303       001010001D    305
     100       0       0       1       0                               0D    306
     102     158       0       0       0       0       0       001010001D    307
     102       0       0       1       0                               0D    308
     142     159       0       0       0       0       0       001010001D    309
     142       0       0       1       0                               0D    310
     144     160       0       0   10000       0       0       000000000D    311
     144       0       0       1       0                PartBody       0D    312
     110     161       0       0       0       0       0       001010001D    313
     110       0       0       1       0                               0D    314
     110     162       0       0       0       0       0       001010001D    315
     110       0       0       1       0                               0D    316
     120     163       0       0       0       0       0       001010001D    317
     120       0       0       1       0                               0D    318
     110     164       0       0       0       0       0       001010001D    319
     110       0       0       1       0                               0D    320
     124     165       0       0       0       0       0       001020001D    321
     124       0       0       1       0                               0D    322
     100     166       0       0       0       0     321       001010001D    323
     100       0       0       1       0                               0D    324
     110     167       0       0       0       0       0       001010001D    325
     110       0       0       1       0                               0D    326
     124     168       0       0       0       0       0       001020001D    327
     124       0       0       1       0                               0D    328
     100     169       0       0       0       0     327       001010001D    329
     100       0       0       1       0                               0D    330
     102     170       0       0       0       0       0       001010001D    331
     102       0       0       1       0                               0D    332
     142     171       0       0       0       0       0       001010001D    333
     142       0       0       1       0                               0D    334
     144     172       0       0   10000       0       0       000000000D    335
     144       0       0       1       0                PartBody       0D    336
     110     173       0       0       0       0       0       001010001D    337
     110       0       0       1       0                               0D    338
     110     174       0       0       0       0       0       001010001D    339
     110       0       0       1       0                               0D    340
     120     175       0       0       0       0       0       001010001D    341
     120       0       0       1       0                               0D    342
     110     176       0       0       0       0       0       001010001D    343
     110       0       0       1       0                               0D    344
     124     177       0       0       0       0       0       001020001D    345
     124       0       0       1       0                               0D    346
     100     178       0       0       0       0     345       001010001D    347
     100       0       0       1       0                               0D    348
     110     179       0       0       0       0       0       001010001D    349
     110       0       0       1       0                               0D    350
     124     180       0       0       0       0       0       001020001D    351
     124       0       0       1       0                               0D    352
     100     181       0       0       0       0     351       001010001D    353
     100       0       0       1       0                               0D    354
     102     182       0       0       0       0       0       001010001D    355
     102       0       0       1       0                               0D    356
     142     183       0       0       0       0       0       001010001D    357
     142       0       0       1       0                               0D    358
     144     184       0       0   10000       0       0       000000000D    359
     144       0       0       1       0                PartBody       0D    360
     110     185       0       0       0       0       0       001010001D    361
     110       0       0       1       0                               0D    362
     110     186       0       0       0       0       0       001010001D    363
     110       0       0       1       0                               0D    364
     120     187       0       0       0       0       0       001010001D    365
     120       0       0       1       0                               0D    366
     110     188       0       0       0       0       0       001010001D    367
     110       0       0       1       0                               0D    368
     124     189       0       0       0       0       0       001020001D    369
     124       0       0       1       0                               0D    370
     100     190       0       0       0       0     369       001010001D    371
     100       0       0       1       0                               0D    372
     110     191       0       0       0       0       0       001010001D    373
     110       0       0       1       0                               0D    374
     124     192       0       0       0       0       0       001020001D    375
     124       0       0       1       0                               0D    376
     100     193       0       0       0       0     375       001010001D    377
     100       0       0       1       0                               0D    378
     102     194       0       0       0       0       0       001010001D    379
     102       0       0       1       0                               0D    380
     142     195       0       0       0       0       0       001010001D    381
     142       0       0       1       0                               0D    382
     144     196       0       0   10000       0       0       000000000D    383
     144       0       0       1       0                PartBody       0D    384
     110     197       0       0       0       0       0       001010001D    385
     110       0       0       1       0                               0D    386
     110     198       0       0       0       0       0       001010001D    387
     110       0       0       1       0                               0D    388
     120     199       0       0       0       0       0       001010001D    389
     120       0       0       1       0                               0D    390
     110     200       0       0       0       0       0       001010001D    391
     110       0       0       1       0                               0D    392
     124     201       0       0       0       0       0       001020001D    393
     124       0       0       1       0                               0D    394
     100     202       0       0       0       0     393       001010001D    395
     100       0       0       1       0                               0D    396
     110     203       0       0       0       0       0       001010001D    397
     110       0       0       1       0                               0D    398
     124     204       0       0       0       0       0       001020001D    399
     124       0       0       1       0                               0D    400
     100     205       0       0       0       0     399       001010001D    401
     100       0       0       1       0                               0D    402
     102     206       0       0       0       0       0       001010001D    403
     102       0       0       1       0                               0D    404
     142     207       0       0       0       0       0       001010001D    405
     142       0       0       1       0                               0D    406
     144     208       0       0   10000       0       0       000000000D    407
     144       0       0       1       0                PartBody       0D    408
     110     209       0       0       0       0       0       001010001D    409
     110       0       0       1       0                               0D    410
     110     210       0       0       0       0       0       001010001D    411
     110       0       0       1       0                               0D    412
     120     211       0       0       0       0       0       001010001D    413
     120       0       0       1       0                               0D    414
     110     212       0       0       0       0       0       001010001D    415
     110       0       0       1       0                               0D    416
     124     213       0       0       0       0       0       001020001D    417
     124       0       0       1       0                               0D    418
     100     214       0       0       0       0     417       001010001D    419
     100       0       0       1       0                               0D    420
     110     215       0       0       0       0       0       001010001D    421
     110       0       0       1       0                               0D    422
     124     216       0       0       0       0       0       001020001D    423
     124       0       0       1       0                               0D    424
     100     217       0       0       0       0     423       001010001D    425
     100       0       0       1       0                               0D    426
     102     218       0       0       0       0       0       001010001D    427
     102       0       0       1       0                               0D    428
     142     219       0       0       0       0       0       001010001D    429
     142       0       0       1       0                               0D    430
     144     220       0       0   10000       0       0       000000000D    431
     144       0       0       1       0                PartBody       0D    432
     110     221       0       0       0       0       0       001010001D    433
     110       0       0       1       0                               0D    434
     110     222       0       0       0       0       0       001010001D    435
     110       0       0       1       0                               0D    436
     120     223       0       0       0       0       0       001010001D    437
     120       0       0       1       0                               0D    438
     110     224       0       0       0       0       0       001010001D    439
     110       0       0       1       0                               0D    440
     124     225       0       0       0       0       0       001020001D    441
     124       0       0       1       0                               0D    442
     100     226       0       0       0       0     441       001010001D    443
     100       0       0       1       0                               0D    444
     110     227       0       0       0       0       0       001010001D    445
     110       0       0       1       0                               0D    446
     124     228       0       0       0       0       0       001020001D    447
     124       0       0       1       0                               0D    448
     100     229       0       0       0       0     447       001010001D    449
     100       0       0       1       0                               0D    450
     102     230       0       0       0       0       0       001010001D    451
     102       0       0       1       0                               0D    452
     142     231       0       0       0       0       0       001010001D    453
     142       0       0       1       0                               0D    454
     144     232       0       0   10000       0       0       000000000D    455
     144       0       0       1       0                PartBody       0D    456
     110     233       0       0       0       0       0       001010001D    457
     110       0       0       1       0                               0D    458
     110     234       0       0       0       0       0       001010001D    459
     110       0       0       1       0                               0D    460
     120     235       0       0       0       0       0       001010001D    461
     120       0       0       1       0                               0D    462
     110     236       0       0       0       0       0       001010001D    463
     110       0       0       1       0                               0D    464
     124     237       0       0       0       0       0       001020001D    465
     124       0       0       1       0                               0D    466
     100     238       0       0       0       0     465       001010001D    467
     100       0       0       1       0                               0D    468
     110     239       0       0       0       0       0       001010001D    469
     110       0       0       1       0                               0D    470
     124     240       0       0       0       0       0       001020001D    471
     124       0       0       1       0                               0D    472
     100     241       0       0       0       0     471       001010001D    473
     100       0       0       1       0                               0D    474
     102     242       0       0       0       0       0       001010001D    475
     102       0       0       1       0                               0D    476
     142     243       0       0       0       0       0       001010001D    477
     142       0       0       1       0                               0D    478
     144     244       0       0   10000       0       0       000000000D    479
     144       0       0       1       0                PartBody       0D    480
     110     245       0       0       0       0       0       001010001D    481
     110       0       0       1       0                               0D    482
     110     246       0       0       0       0       0       001010001D    483
     110       0       0       1       0                               0D    484
     120     247       0       0       0       0       0       001010001D    485
     120       0       0       1       0                               0D    486
     110     248       0       0       0       0       0       001010001D    487
     110       0       0       1       0                               0D    488
     124     249       0       0       0       0       0       001020001D    489
     124       0       0       1       0                               0D    490
     100     250       0       0       0       0     489       001010001D    491
     100       0       0       1       0                               0D    492
     110     251       0       0       0       0       0       001010001D    493
     110       0       0       1       0                               0D    494
     124     252       0       0       0       0       0       001020001D    495
     124       0       0       1       0                               0D    496
     100     253       0       0       0       0     495       001010001D    497
     100       0       0       1       0                               0D    498
     102     254       0       0       0       0       0       001010001D    499
     102       0       0       1       0                               0D    500
     142     255       0       0       0       0       0       001010001D    501
     142       0       0       1       0                               0D    502
     144     256       0       0   10000       0       0       000000000D    503
     144       0       0       1       0                PartBody       0D    504
     110     257       0       0       0       0       0       001010001D    505
     110       0       0       1       0                               0D    506
     124     258       0       0       0       0       0       001020001D    507
     124       0       0       2       0                               0D    508
     100     260       0       0       0       0     507       001010001D    509
     100       0       0       1       0                               0D    510
     120     261       0       0       0       0       0       001010001D    511
     120       0       0       1       0                               0D    512
     124     262       0       0       0       0       0       001020001D    513
     124       0       0       3       0                               0D    514
     100     265       0       0       0       0     513       001010001D    515
     100       0       0       1       0                               0D    516
     124     266       0       0       0       0       0       001020001D    517
     124       0       0       2       0                               0D    518
     100     268       0       0       0       0     517       001010001D    519
     100       0       0       1       0                               0D    520
     124     269       0       0       0       0       0       001020001D    521
     124       0       0       1       0                               0D    522
     100     270       0       0       0       0     521       001010001D    523
     100       0       0       1       0                               0D    524
     124     271       0       0       0       0       0       001020001D    525
     124       0       0       2       0                               0D    526
     100     273       0       0       0       0     525       001010001D    527
     100       0       0       1       0                               0D    528
     124     274       0       0       0       0       0       001020001D    529
     124       0       0       2       0                               0D    530
     100     276       0       0       0       0     529       001010001D    531
     100       0       0       1       0                               0D    532
     102     277       0       0       0       0       0       001010001D    533
     102       0       0       1       0                               0D    534
     142     278       0       0       0       0       0       001010001D    535
     142       0       0       1       0                               0D    536
     144     279       0       0   10000       0       0       000000000D    537
     144       0       0       1       0                PartBody       0D    538
     110     280       0       0       0       0       0       001010001D    539
     110       0       0       1       0                               0D    540
     124     281       0       0       0       0       0       001020001D    541
     124       0       0       2       0                               0D    542
     100     283       0       0       0       0     541       001010001D    543
     100       0       0       1       0                               0D    544
     120     284       0       0       0       0       0       001010001D    545
     120       0       0       1       0                               0D    546
     124     285       0       0       0       0       0       001020001D    547
     124       0       0       3       0                               0D    548
     100     288       0       0       0       0     547       001010001D    549
     100       0       0       1       0                               0D    550
     124     289       0       0       0       0       0       001020001D    551
     124       0       0       2       0                               0D    552
     100     291       0       0       0       0     551       001010001D    553
     100       0       0       1       0                               0D    554
     124     292       0       0       0       0       0       001020001D    555
     124       0       0       1       0                               0D    556
     100     293       0       0       0       0     555       001010001D    557
     100       0       0       1       0                               0D    558
     124     294       0       0       0       0       0       001020001D    559
     124       0       0       2       0                               0D    560
     100     296       0       0       0       0     559       001010001D    561
     100       0       0       1       0                               0D    562
     124     297       0       0       0       0       0       001020001D    563
     124       0       0       2       0                               0D    564
     100     299       0       0       0       0     563       001010001D    565
     100       0       0       1       0                               0D    566
     102     300       0       0       0       0       0       001010001D    567
     102       0       0       1       0                               0D    568
     142     301       0       0       0       0       0       001010001D    569
     142       0       0       1       0                               0D    570
     144     302       0       0   10000       0       0       000000000D    571
     144       0       0       1       0                PartBody       0D    572
     110     303       0       0       0       0       0       001010001D    573
     110       0       0       1       0                               0D    574
     124     304       0       0       0       0       0       001020001D    575
     124       0       0       2       0                               0D    576
     100     306       0       0       0       0     575       001010001D    577
     100       0       0       1       0                               0D    578
     120     307       0       0       0       0       0       001010001D    579
     120       0       0       1       0                               0D    580
     124     308       0       0       0       0       0       001020001D    581
     124       0       0       2       0                               0D    582
     100     310       0       0       0       0     581       001010001D    583
     100       0       0       1       0                               0D    584
     124     311       0       0       0       0       0       001020001D    585
     124       0       0       3       0                               0D    586
     100     314       0       0       0       0     585       001010001D    587
     100       0       0       1       0                               0D    588
     124     315       0       0       0       0       0       001020001D    589
     124       0       0       2       0                               0D    590
     100     317       0       0       0       0     589       001010001D    591
     100       0       0       1       0                               0D    592
     124     318       0       0       0       0       0       001020001D    593
     124       0       0       1       0                               0D    594
     100     319       0       0       0       0     593       001010001D    595
     100       0       0       1       0                               0D    596
     124     320       0       0       0       0       0       001020001D    597
     124       0       0       2       0                               0D    598
     100     322       0       0       0       0     597       001010001D    599
     100       0       0       1       0                               0D    600
     102     323       0       0       0       0       0       001010001D    601
     102       0       0       1       0                               0D    602
     142     324       0       0       0       0       0       001010001D    603
     142       0       0       1       0                               0D    604
     144     325       0       0   10000       0       0       000000000D    605
     144       0       0       1       0                PartBody       0D    606
     110     326       0       0       0       0       0       001010001D    607
     110       0       0       1       0                               0D    608
     124     327       0       0       0       0       0       001020001D    609
     124       0       0       2       0                               0D    610
     100     329       0       0       0       0     609       001010001D    611
     100       0       0       1       0                               0D    612
     120     330       0       0       0       0       0       001010001D    613
     120       0       0       1       0                               0D    614
     124     331       0       0       0       0       0       001020001D    615
     124       0       0       2       0                               0D    616
     100     333       0       0       0       0     615       001010001D    617
     100       0       0       1       0                               0D    618
     124     334       0       0       0       0       0       001020001D    619
     124       0       0       3       0                               0D    620
     100     337       0       0       0       0     619       001010001D    621
     100       0       0       1       0                               0D    622
     124     338       0       0       0       0       0       001020001D    623
     124       0       0       2       0                               0D    624
     100     340       0       0       0       0     623       001010001D    625
     100       0       0       1       0                               0D    626
     124     341       0       0       0       0       0       001020001D    627
     124       0       0       1       0                               0D    628
     100     342       0       0       0       0     627       001010001D    629
     100       0       0       1       0                               0D    630
     124     343       0       0       0       0       0       001020001D    631
     124       0       0       2       0                               0D    632
     100     345       0       0       0       0     631       001010001D    633
     100       0       0       1       0                               0D    634
     102     346       0       0       0       0       0       001010001D    635
     102       0       0       1       0                               0D    636
     142     347       0       0       0       0       0       001010001D    637
     142       0       0       1       0                               0D    638
     144     348       0       0   10000       0       0       000000000D    639
     144       0       0       1       0                PartBody       0D    640
     108     349       0       0       0       0       0       001010001D    641
     108       0       0       1       0                               0D    642
     124     350       0       0       0       0       0       001020001D    643
     124       0       0       2       0                               0D    644
     100     352       0       0       0       0     643       001010001D    645
     100       0       0       1       0                               0D    646
     124     353       0       0       0       0       0       001020001D    647
     124       0       0       2       0                               0D    648
     100     355       0       0       0       0     647       001010001D    649
     100       0       0       1       0                               0D    650
     102     356       0       0       0       0       0       001010001D    651
     102       0       0       1       0                               0D    652
     142     357       0       0       0       0       0       001010001D    653
     142       0       0       1       0                               0D    654
     124     358       0       0       0       0       0       001020001D    655
     124       0       0       2       0                               0D    656
     100     360       0       0       0       0     655       001010001D    657
     100       0       0       1       0                               0D    658
     124     361       0       0       0       0       0       001020001D    659
     124       0       0       2       0                               0D    660
     100     363       0       0       0       0     659       001010001D    661
     100       0       0       1       0                               0D    662
     102     364       0       0       0       0       0       001010001D    663
     102       0       0       1       0                               0D    664
     142     365       0       0       0       0       0       001010001D    665
     142       0       0       1       0                               0D    666
     144     366       0       0   10000       0       0       000000000D    667
     144       0       0       1       0                PartBody       0D    668
110,0.0,0.0,17.0,0.0,0.0,18.0,0,0;                                     1P      1
110,26.7,0.0,2.0,26.7,0.0,32.0,0,0;                                    3P      2
120,1,3,0.0,6.283185307,0,0;                                           5P      3
124,1.0,0.0,0.0,0.0,0.0,1.0,0.0,0.0,0.0,0.0,1.0,32.0,0,0;              7P      4
100,0.0,0.0,0.0,26.7,0.0,23.4314544,12.80066188,0,0;                   9P      5
124,0.8775825619,-0.4794255386,0.0,0.0,0.4794255386,                  11P      6
0.8775825619,0.0,0.0,0.0,0.0,1.0,32.0,0,0;                            11P      7
100,0.0,0.0,0.0,26.7,0.0,-23.4314544,12.80066188,0,0;                 13P      8
110,-26.7,0.0,32.0,-26.7,0.0,2.0,0,0;                                 15P      9
124,-1.0,0.0,0.0,0.0,0.0,1.0,0.0,0.0,0.0,0.0,-1.0,2.0,0,0;            17P     10
100,0.0,0.0,0.0,26.7,0.0,-26.7,0.0,0,0;                               19P     11
110,26.7,0.0,2.0,26.7,0.0,32.0,0,0;                                   21P     12
102,5,9,13,15,19,21,0,0;                                              23P     13
142,0,5,0,23,2,0,0;                                                   25P     14
144,5,1,0,25,0,0;                                                     27P     15
110,0.0,0.0,17.0,0.0,0.0,18.0,0,0;                                    29P     16
110,-26.7,0.0,2.0,-26.7,0.0,32.0,0,0;                                 31P     17
120,29,31,0.0,6.283185307,0,0;                                        33P     18
124,-1.0,0.0,0.0,0.0,0.0,-1.0,0.0,0.0,0.0,0.0,1.0,32.0,0,0;           35P     19
100,0.0,0.0,0.0,26.7,0.0,23.4314544,12.80066188,0,0;                  37P     20
124,-0.8775825619,0.4794255386,0.0,0.0,-0.4794255386,                 39P     21
-0.8775825619,0.0,0.0,0.0,0.0,1.0,32.0,0,0;                           39P     22
100,0.0,0.0,0.0,26.7,0.0,-23.4314544,12.80066188,0,0;                 41P     23
110,26.7,0.0,32.0,26.7,0.0,2.0,0,0;                                   43P     24
124,1.0,0.0,0.0,0.0,0.0,-1.0,0.0,0.0,0.0,0.0,-1.0,2.0,0,0;            45P     25
100,0.0,0.0,0.0,26.7,0.0,-26.7,0.0,0,0;                               47P     26
110,-26.7,0.0,2.0,-26.7,0.0,32.0,0,0;                                 49P     27
102,5,37,41,43,47,49,0,0;                                             51P     28
142,0,33,0,51,2,0,0;                                                  53P     29
144,33,1,0,53,0,0;                                                    55P     30
110,0.0,0.0,1.0,0.0,0.0,2.0,0,0;                                      57P     31
110,38.0,0.0,0.0,38.0,0.0,2.0,0,0;                                    59P     32
120,57,59,0.0,6.283185307,0,0;                                        61P     33
124,1.0,0.0,0.0,0.0,0.0,1.0,0.0,0.0,0.0,0.0,1.0,2.0,0,0;              63P     34
100,0.0,0.0,0.0,38.0,0.0,-38.0,0.0,0,0;                               65P     35
110,-38.0,0.0,2.0,-38.0,0.0,0.0,0,0;                                  67P     36
124,-1.0,0.0,0.0,0.0,0.0,1.0,0.0,0.0,0.0,0.0,-1.0,0.0,0,0;            69P     37
100,0.0,0.0,0.0,38.0,0.0,-38.0,0.0,0,0;                               71P     38
110,38.0,0.0,0.0,38.0,0.0,2.0,0,0;                                    73P     39
102,4,65,67,71,73,0,0;                                                75P     40
142,0,61,0,75,2,0,0;                                                  77P     41
144,61,1,0,77,0,0;                                                    79P     42
110,0.0,0.0,1.0,0.0,0.0,2.0,0,0;                                      81P     43
110,-38.0,0.0,0.0,-38.0,0.0,2.0,0,0;                                  83P     44
120,81,83,0.0,6.283185307,0,0;                                        85P     45
124,-1.0,0.0,0.0,0.0,0.0,-1.0,0.0,0.0,0.0,0.0,1.0,2.0,0,0;            87P     46
100,0.0,0.0,0.0,38.0,0.0,-38.0,0.0,0,0;                               89P     47
110,38.0,0.0,2.0,38.0,0.0,0.0,0,0;                                    91P     48
124,1.0,0.0,0.0,0.0,0.0,-1.0,0.0,0.0,0.0,0.0,-1.0,0.0,0,0;            93P     49
100,0.0,0.0,0.0,38.0,0.0,-38.0,0.0,0,0;                               95P     50
110,-38.0,0.0,0.0,-38.0,0.0,2.0,0,0;                                  97P     51
102,4,89,91,95,97,0,0;                                                99P     52
142,0,85,0,99,2,0,0;                                                 101P     53
144,85,1,0,101,0,0;                                                  103P     54
110,0.0,0.0,1.0,0.0,0.0,2.0,0,0;                                     105P     55
110,-24.7,0.0,0.0,-24.7,0.0,32.0,0,0;                                107P     56
120,105,107,0.0,6.283185307,0,0;                                     109P     57
110,-24.7,0.0,32.0,-24.7,0.0,0.0,0,0;                                111P     58
124,-1.0,0.0,0.0,0.0,0.0,-1.0,0.0,0.0,0.0,0.0,1.0,0.0,0,0;           113P     59
100,0.0,0.0,0.0,24.7,0.0,-24.7,0.0,0,0;                              115P     60
110,24.7,0.0,0.0,24.7,0.0,32.0,0,0;                                  117P     61
124,1.0,0.0,0.0,0.0,0.0,-1.0,0.0,0.0,0.0,0.0,-1.0,32.0,0,0;          119P     62
100,0.0,0.0,0.0,24.7,0.0,-21.67628928,11.8418108,0,0;                121P     63
124,-0.8775825619,-0.4794255386,0.0,0.0,-0.4794255386,               123P     64
0.8775825619,0.0,0.0,0.0,0.0,-1.0,32.0,0,0;                          123P     65
100,0.0,0.0,0.0,24.7,0.0,21.67628928,11.8418108,0,0;                 125P     66
102,5,111,115,117,121,125,0,0;                                       127P     67
142,0,109,0,127,2,0,0;                                               129P     68
144,109,1,0,129,0,0;                                                 131P     69
110,0.0,0.0,1.0,0.0,0.0,2.0,0,0;                                     133P     70
110,24.7,0.0,0.0,24.7,0.0,32.0,0,0;                                  135P     71
120,133,135,0.0,6.283185307,0,0;                                     137P     72
110,24.7,0.0,32.0,24.7,0.0,0.0,0,0;                                  139P     73
124,1.0,0.0,0.0,0.0,0.0,1.0,0.0,0.0,0.0,0.0,1.0,0.0,0,0;             141P     74
100,0.0,0.0,0.0,24.7,0.0,-24.7,0.0,0,0;                              143P     75
110,-24.7,0.0,0.0,-24.7,0.0,32.0,0,0;                                145P     76
124,-1.0,0.0,0.0,0.0,0.0,1.0,0.0,0.0,0.0,0.0,-1.0,32.0,0,0;          147P     77
100,0.0,0.0,0.0,24.7,0.0,-21.67628928,11.8418108,0,0;                149P     78
124,0.8775825619,0.4794255386,0.0,0.0,0.4794255386,                  151P     79
-0.8775825619,0.0,0.0,0.0,0.0,-1.0,32.0,0,0;                         151P     80
100,0.0,0.0,0.0,24.7,0.0,21.67628928,11.8418108,0,0;                 153P     81
102,5,139,143,145,149,153,0,0;                                       155P     82
142,0,137,0,155,2,0,0;                                               157P     83
144,137,1,0,157,0,0;                                                 159P     84
108,0.0,0.0,1.0,0.0,0,0.0,0.0,0.0,1.0,0,0;                           161P     85
124,1.0,0.0,0.0,0.0,0.0,1.0,0.0,0.0,0.0,0.0,1.0,0.0,0,0;             163P     86
100,0.0,0.0,0.0,38.0,0.0,-38.0,0.0,0,0;                              165P     87
124,-1.0,0.0,0.0,0.0,0.0,-1.0,0.0,0.0,0.0,0.0,1.0,0.0,0,0;           167P     88
100,0.0,0.0,0.0,38.0,0.0,-38.0,0.0,0,0;                              169P     89
102,2,165,169,0,0;                                                   171P     90
142,0,161,0,171,2,0,0;                                               173P     91
124,1.0,0.0,0.0,0.0,0.0,-1.0,0.0,0.0,0.0,0.0,-1.0,0.0,0,0;           175P     92
100,0.0,0.0,0.0,24.7,0.0,-24.7,0.0,0,0;                              177P     93
124,-1.0,0.0,0.0,0.0,0.0,1.0,0.0,0.0,0.0,0.0,-1.0,0.0,0,0;           179P     94
100,0.0,0.0,0.0,24.7,0.0,-24.7,0.0,0,0;                              181P     95
102,2,177,181,0,0;                                                   183P     96
142,0,161,0,183,2,0,0;                                               185P     97
124,-1.0,0.0,0.0,33.0,0.0,1.0,0.0,0.0,0.0,0.0,-1.0,0.0,0,0;          187P     98
100,0.0,0.0,0.0,2.0,0.0,-2.0,0.0,0,0;                                189P     99
124,1.0,0.0,0.0,33.0,0.0,-1.0,0.0,0.0,0.0,0.0,-1.0,0.0,0,0;          191P    100
100,0.0,0.0,0.0,2.0,0.0,-2.0,0.0,0,0;                                193P    101
102,2,189,193,0,0;                                                   195P    102
142,0,161,0,195,2,0,0;                                               197P    103
124,-1.0,0.0,0.0,0.0,0.0,1.0,0.0,33.0,0.0,0.0,-1.0,0.0,0,0;          199P    104
100,0.0,0.0,0.0,2.0,0.0,-2.0,0.0,0,0;                                201P    105
124,1.0,0.0,0.0,0.0,0.0,-1.0,0.0,33.0,0.0,0.0,-1.0,0.0,0,0;          203P    106
100,0.0,0.0,0.0,2.0,0.0,-2.0,0.0,0,0;                                205P    107
102,2,201,205,0,0;                                                   207P    108
142,0,161,0,207,2,0,0;                                               209P    109
124,-1.0,0.0,0.0,-33.0,0.0,1.0,0.0,0.0,0.0,0.0,-1.0,0.0,0,0;         211P    110
100,0.0,0.0,0.0,2.0,0.0,-2.0,0.0,0,0;                                213P    111
124,1.0,0.0,0.0,-33.0,0.0,-1.0,0.0,0.0,0.0,0.0,-1.0,0.0,0,0;         215P    112
100,0.0,0.0,0.0,2.0,0.0,-2.0,0.0,0,0;                                217P    113
102,2,213,217,0,0;                                                   219P    114
142,0,161,0,219,2,0,0;                                               221P    115
124,-1.0,0.0,0.0,0.0,0.0,1.0,0.0,-33.0,0.0,0.0,-1.0,0.0,0,0;         223P    116
100,0.0,0.0,0.0,2.0,0.0,-2.0,0.0,0,0;                                225P    117
124,1.0,0.0,0.0,0.0,0.0,-1.0,0.0,-33.0,0.0,0.0,-1.0,0.0,0,0;         227P    118
100,0.0,0.0,0.0,2.0,0.0,-2.0,0.0,0,0;                                229P    119
102,2,225,229,0,0;                                                   231P    120
142,0,161,0,231,2,0,0;                                               233P    121
144,161,1,5,173,185,197,209,221,233,0,0;                             235P    122
108,0.0,0.0,1.0,2.0,0,0.0,0.0,2.0,1.0,0,0;                           237P    123
124,1.0,0.0,0.0,0.0,0.0,-1.0,0.0,0.0,0.0,0.0,-1.0,2.0,0,0;           239P    124
100,0.0,0.0,0.0,38.0,0.0,-38.0,0.0,0,0;                              241P    125
124,-1.0,0.0,0.0,0.0,0.0,1.0,0.0,0.0,0.0,0.0,-1.0,2.0,0,0;           243P    126
100,0.0,0.0,0.0,38.0,0.0,-38.0,0.0,0,0;                              245P    127
102,2,241,245,0,0;                                                   247P    128
142,0,237,0,247,2,0,0;                                               249P    129
124,-1.0,0.0,0.0,0.0,0.0,-1.0,0.0,0.0,0.0,0.0,1.0,2.0,0,0;           251P    130
100,0.0,0.0,0.0,26.7,0.0,-26.7,0.0,0,0;                              253P    131
124,1.0,0.0,0.0,0.0,0.0,1.0,0.0,0.0,0.0,0.0,1.0,2.0,0,0;             255P    132
100,0.0,0.0,0.0,26.7,0.0,-26.7,0.0,0,0;                              257P    133
102,2,253,257,0,0;                                                   259P    134
142,0,237,0,259,2,0,0;                                               261P    135
124,-1.0,0.0,0.0,33.0,0.0,-1.0,0.0,0.0,0.0,0.0,1.0,2.0,0,0;          263P    136
100,0.0,0.0,0.0,2.0,0.0,-2.0,0.0,0,0;                                265P    137
124,1.0,0.0,0.0,33.0,0.0,1.0,0.0,0.0,0.0,0.0,1.0,2.0,0,0;            267P    138
100,0.0,0.0,0.0,2.0,0.0,-2.0,0.0,0,0;                                269P    139
102,2,265,269,0,0;                                                   271P    140
142,0,237,0,271,2,0,0;                                               273P    141
124,-1.0,0.0,0.0,0.0,0.0,-1.0,0.0,33.0,0.0,0.0,1.0,2.0,0,0;          275P    142
100,0.0,0.0,0.0,2.0,0.0,-2.0,0.0,0,0;                                277P    143
124,1.0,0.0,0.0,0.0,0.0,1.0,0.0,33.0,0.0,0.0,1.0,2.0,0,0;            279P    144
100,0.0,0.0,0.0,2.0,0.0,-2.0,0.0,0,0;                                281P    145
102,2,277,281,0,0;                                                   283P    146
142,0,237,0,283,2,0,0;                                               285P    147
124,-1.0,0.0,0.0,-33.0,0.0,-1.0,0.0,0.0,0.0,0.0,1.0,2.0,0,0;         287P    148
100,0.0,0.0,0.0,2.0,0.0,-2.0,0.0,0,0;                                289P    149
124,1.0,0.0,0.0,-33.0,0.0,1.0,0.0,0.0,0.0,0.0,1.0,2.0,0,0;           291P    150
100,0.0,0.0,0.0,2.0,0.0,-2.0,0.0,0,0;                                293P    151
102,2,289,293,0,0;                                                   295P    152
142,0,237,0,295,2,0,0;                                               297P    153
124,-1.0,0.0,0.0,0.0,0.0,-1.0,0.0,-33.0,0.0,0.0,1.0,2.0,0,0;         299P    154
100,0.0,0.0,0.0,2.0,0.0,-2.0,0.0,0,0;                                301P    155
124,1.0,0.0,0.0,0.0,0.0,1.0,0.0,-33.0,0.0,0.0,1.0,2.0,0,0;           303P    156
100,0.0,0.0,0.0,2.0,0.0,-2.0,0.0,0,0;                                305P    157
102,2,301,305,0,0;                                                   307P    158
142,0,237,0,307,2,0,0;                                               309P    159
144,237,1,5,249,261,273,285,297,309,0,0;                             311P    160
110,-33.0,0.0,-18.0,-33.0,0.0,-17.0,0,0;                             313P    161
110,-35.0,0.0,0.0,-35.0,0.0,2.0,0,0;                                 315P    162
120,313,315,0.0,6.283185307,0,0;                                     317P    163
110,-31.0,0.0,0.0,-31.0,0.0,2.0,0,0;                                 319P    164
124,1.0,0.0,0.0,-33.0,0.0,-1.0,0.0,0.0,0.0,0.0,-1.0,2.0,0,0;         321P    165
100,0.0,0.0,0.0,2.0,0.0,-2.0,0.0,0,0;                                323P    166
110,-35.0,0.0,2.0,-35.0,0.0,0.0,0,0;                                 325P    167
124,-1.0,0.0,0.0,-33.0,0.0,-1.0,0.0,0.0,0.0,0.0,1.0,0.0,0,0;         327P    168
100,0.0,0.0,0.0,2.0,0.0,-2.0,0.0,0,0;                                329P    169
102,4,319,323,325,329,0,0;                                           331P    170
142,0,317,0,331,2,0,0;                                               333P    171
144,317,1,0,333,0,0;                                                 335P    172
110,-33.0,0.0,-18.0,-33.0,0.0,-17.0,0,0;                             337P    173
110,-31.0,0.0,0.0,-31.0,0.0,2.0,0,0;                                 339P    174
120,337,339,0.0,6.283185307,0,0;                                     341P    175
110,-35.0,0.0,0.0,-35.0,0.0,2.0,0,0;                                 343P    176
124,-1.0,0.0,0.0,-33.0,0.0,1.0,0.0,0.0,0.0,0.0,-1.0,2.0,0,0;         345P    177
100,0.0,0.0,0.0,2.0,0.0,-2.0,0.0,0,0;                                347P    178
110,-31.0,0.0,2.0,-31.0,0.0,0.0,0,0;                                 349P    179
124,1.0,0.0,0.0,-33.0,0.0,1.0,0.0,0.0,0.0,0.0,1.0,0.0,0,0;           351P    180
100,0.0,0.0,0.0,2.0,0.0,-2.0,0.0,0,0;                                353P    181
102,4,343,347,349,353,0,0;                                           355P    182
142,0,341,0,355,2,0,0;                                               357P    183
144,341,1,0,357,0,0;                                                 359P    184
110,0.0,33.0,-18.0,0.0,33.0,-17.0,0,0;                               361P    185
110,-2.0,33.0,0.0,-2.0,33.0,2.0,0,0;                                 363P    186
120,361,363,0.0,6.283185307,0,0;                                     365P    187
110,2.0,33.0,0.0,2.0,33.0,2.0,0,0;                                   367P    188
124,1.0,0.0,0.0,0.0,0.0,-1.0,0.0,33.0,0.0,0.0,-1.0,2.0,0,0;          369P    189
100,0.0,0.0,0.0,2.0,0.0,-2.0,0.0,0,0;                                371P    190
110,-2.0,33.0,2.0,-2.0,33.0,0.0,0,0;                                 373P    191
124,-1.0,0.0,0.0,0.0,0.0,-1.0,0.0,33.0,0.0,0.0,1.0,0.0,0,0;          375P    192
100,0.0,0.0,0.0,2.0,0.0,-2.0,0.0,0,0;                                377P    193
102,4,367,371,373,377,0,0;                                           379P    194
142,0,365,0,379,2,0,0;                                               381P    195
144,365,1,0,381,0,0;                                                 383P    196
110,0.0,33.0,-18.0,0.0,33.0,-17.0,0,0;                               385P    197
110,2.0,33.0,0.0,2.0,33.0,2.0,0,0;                                   387P    198
120,385,387,0.0,6.283185307,0,0;                                     389P    199
110,-2.0,33.0,0.0,-2.0,33.0,2.0,0,0;                                 391P    200
124,-1.0,0.0,0.0,0.0,0.0,1.0,0.0,33.0,0.0,0.0,-1.0,2.0,0,0;          393P    201
100,0.0,0.0,0.0,2.0,0.0,-2.0,0.0,0,0;                                395P    202
110,2.0,33.0,2.0,2.0,33.0,0.0,0,0;                                   397P    203
124,1.0,0.0,0.0,0.0,0.0,1.0,0.0,33.0,0.0,0.0,1.0,0.0,0,0;            399P    204
100,0.0,0.0,0.0,2.0,0.0,-2.0,0.0,0,0;                                401P    205
102,4,391,395,397,401,0,0;                                           403P    206
142,0,389,0,403,2,0,0;                                               405P    207
144,389,1,0,405,0,0;                                                 407P    208
110,0.0,-33.0,-18.0,0.0,-33.0,-17.0,0,0;                             409P    209
110,-2.0,-33.0,0.0,-2.0,-33.0,2.0,0,0;                               411P    210
120,409,411,0.0,6.283185307,0,0;                                     413P    211
110,2.0,-33.0,0.0,2.0,-33.0,2.0,0,0;                                 415P    212
124,1.0,0.0,0.0,0.0,0.0,-1.0,0.0,-33.0,0.0,0.0,-1.0,2.0,0,0;         417P    213
100,0.0,0.0,0.0,2.0,0.0,-2.0,0.0,0,0;                                419P    214
110,-2.0,-33.0,2.0,-2.0,-33.0,0.0,0,0;                               421P    215
124,-1.0,0.0,0.0,0.0,0.0,-1.0,0.0,-33.0,0.0,0.0,1.0,0.0,0,0;         423P    216
100,0.0,0.0,0.0,2.0,0.0,-2.0,0.0,0,0;                                425P    217
102,4,415,419,421,425,0,0;                                           427P    218
142,0,413,0,427,2,0,0;                                               429P    219
144,413,1,0,429,0,0;                                                 431P    220
110,0.0,-33.0,-18.0,0.0,-33.0,-17.0,0,0;                             433P    221
110,2.0,-33.0,0.0,2.0,-33.0,2.0,0,0;                                 435P    222
120,433,435,0.0,6.283185307,0,0;                                     437P    223
110,-2.0,-33.0,0.0,-2.0,-33.0,2.0,0,0;                               439P    224
124,-1.0,0.0,0.0,0.0,0.0,1.0,0.0,-33.0,0.0,0.0,-1.0,2.0,0,0;         441P    225
100,0.0,0.0,0.0,2.0,0.0,-2.0,0.0,0,0;                                443P    226
110,2.0,-33.0,2.0,2.0,-33.0,0.0,0,0;                                 445P    227
124,1.0,0.0,0.0,0.0,0.0,1.0,0.0,-33.0,0.0,0.0,1.0,0.0,0,0;           447P    228
100,0.0,0.0,0.0,2.0,0.0,-2.0,0.0,0,0;                                449P    229
102,4,439,443,445,449,0,0;                                           451P    230
142,0,437,0,451,2,0,0;                                               453P    231
144,437,1,0,453,0,0;                                                 455P    232
110,33.0,0.0,-18.0,33.0,0.0,-17.0,0,0;                               457P    233
110,31.0,0.0,0.0,31.0,0.0,2.0,0,0;                                   459P    234
120,457,459,0.0,6.283185307,0,0;                                     461P    235
110,35.0,0.0,0.0,35.0,0.0,2.0,0,0;                                   463P    236
124,1.0,0.0,0.0,33.0,0.0,-1.0,0.0,0.0,0.0,0.0,-1.0,2.0,0,0;          465P    237
100,0.0,0.0,0.0,2.0,0.0,-2.0,0.0,0,0;                                467P    238
110,31.0,0.0,2.0,31.0,0.0,0.0,0,0;                                   469P    239
124,-1.0,0.0,0.0,33.0,0.0,-1.0,0.0,0.0,0.0,0.0,1.0,0.0,0,0;          471P    240
100,0.0,0.0,0.0,2.0,0.0,-2.0,0.0,0,0;                                473P    241
102,4,463,467,469,473,0,0;                                           475P    242
142,0,461,0,475,2,0,0;                                               477P    243
144,461,1,0,477,0,0;                                                 479P    244
110,33.0,0.0,-18.0,33.0,0.0,-17.0,0,0;                               481P    245
110,35.0,0.0,0.0,35.0,0.0,2.0,0,0;                                   483P    246
120,481,483,0.0,6.283185307,0,0;                                     485P    247
110,31.0,0.0,0.0,31.0,0.0,2.0,0,0;                                   487P    248
124,-1.0,0.0,0.0,33.0,0.0,1.0,0.0,0.0,0.0,0.0,-1.0,2.0,0,0;          489P    249
100,0.0,0.0,0.0,2.0,0.0,-2.0,0.0,0,0;                                491P    250
110,35.0,0.0,2.0,35.0,0.0,0.0,0,0;                                   493P    251
124,1.0,0.0,0.0,33.0,0.0,1.0,0.0,0.0,0.0,0.0,1.0,0.0,0,0;            495P    252
100,0.0,0.0,0.0,2.0,0.0,-2.0,0.0,0,0;                                497P    253
102,4,487,491,493,497,0,0;                                           499P    254
142,0,485,0,499,2,0,0;                                               501P    255
144,485,1,0,501,0,0;                                                 503P    256
110,0.0,0.0,32.0,-0.8775825619,-0.4794255386,32.0,0,0;               505P    257
124,-0.8775825619,0.0,-0.4794255386,0.0,-0.4794255386,0.0,           507P    258
0.8775825619,0.0,0.0,1.0,0.0,32.0,0,0;                               507P    259
100,0.0,0.0,0.0,24.7,0.0,-24.7,0.0,0,0;                              509P    260
120,505,509,0.0,6.283185307,0,0;                                     511P    261
124,-0.5149839834,-0.7105931675,0.4794255386,0.0,-0.2813370324,      513P    262
-0.3881988167,-0.8775825619,0.0,0.8097165992,-0.5868211218,0.0,      513P    263
32.0,0,0;                                                            513P    264
100,0.0,0.0,0.0,24.7,0.0,14.49448171,20.0,0,0;                       515P    265
124,-0.8775825619,0.4794255386,0.0,0.0,-0.4794255386,                517P    266
-0.8775825619,0.0,0.0,0.0,0.0,1.0,32.0,0,0;                          517P    267
100,0.0,0.0,0.0,24.7,0.0,-21.67628928,11.8418108,0,0;                519P    268
124,1.0,0.0,0.0,0.0,0.0,1.0,0.0,0.0,0.0,0.0,1.0,32.0,0,0;            521P    269
100,0.0,0.0,0.0,24.7,0.0,21.67628928,11.8418108,0,0;                 523P    270
124,0.8775825619,0.0,0.4794255386,0.0,0.4794255386,0.0,              525P    271
-0.8775825619,0.0,0.0,1.0,0.0,32.0,0,0;                              525P    272
100,0.0,0.0,0.0,24.7,0.0,14.49448171,20.0,0,0;                       527P    273
124,0.8775825619,0.4794255386,0.0,0.0,0.4794255386,                  529P    274
-0.8775825619,0.0,0.0,0.0,0.0,-1.0,52.0,0,0;                         529P    275
100,0.0,0.0,0.0,14.49448171,0.0,-14.49448171,0.0,0,0;                531P    276
102,5,515,519,523,527,531,0,0;                                       533P    277
142,0,511,0,533,2,0,0;                                               535P    278
144,511,1,0,535,0,0;                                                 537P    279
110,0.0,0.0,32.0,0.8775825619,0.4794255386,32.0,0,0;                 539P    280
124,0.8775825619,0.0,0.4794255386,0.0,0.4794255386,0.0,              541P    281
-0.8775825619,0.0,0.0,1.0,0.0,32.0,0,0;                              541P    282
100,0.0,0.0,0.0,24.7,0.0,-24.7,0.0,0,0;                              543P    283
120,539,543,0.0,6.283185307,0,0;                                     545P    284
124,0.5149839834,0.7105931675,-0.4794255386,0.0,0.2813370324,        547P    285
0.3881988167,0.8775825619,0.0,0.8097165992,-0.5868211218,0.0,        547P    286
32.0,0,0;                                                            547P    287
100,0.0,0.0,0.0,24.7,0.0,14.49448171,20.0,0,0;                       549P    288
124,0.8775825619,-0.4794255386,0.0,0.0,0.4794255386,                 551P    289
0.8775825619,0.0,0.0,0.0,0.0,1.0,32.0,0,0;                           551P    290
100,0.0,0.0,0.0,24.7,0.0,-21.67628928,11.8418108,0,0;                553P    291
124,-1.0,0.0,0.0,0.0,0.0,-1.0,0.0,0.0,0.0,0.0,1.0,32.0,0,0;          555P    292
100,0.0,0.0,0.0,24.7,0.0,21.67628928,11.8418108,0,0;                 557P    293
124,-0.8775825619,0.0,-0.4794255386,0.0,-0.4794255386,0.0,           559P    294
0.8775825619,0.0,0.0,1.0,0.0,32.0,0,0;                               559P    295
100,0.0,0.0,0.0,24.7,0.0,14.49448171,20.0,0,0;                       561P    296
124,-0.8775825619,-0.4794255386,0.0,0.0,-0.4794255386,               563P    297
0.8775825619,0.0,0.0,0.0,0.0,-1.0,52.0,0,0;                          563P    298
100,0.0,0.0,0.0,14.49448171,0.0,-14.49448171,0.0,0,0;                565P    299
102,5,549,553,557,561,565,0,0;                                       567P    300
142,0,545,0,567,2,0,0;                                               569P    301
144,545,1,0,569,0,0;                                                 571P    302
110,0.0,0.0,32.0,0.8775825619,0.4794255386,32.0,0,0;                 573P    303
124,-0.8775825619,0.0,-0.4794255386,0.0,-0.4794255386,0.0,           575P    304
0.8775825619,0.0,0.0,1.0,0.0,32.0,0,0;                               575P    305
100,0.0,0.0,0.0,26.7,0.0,-26.7,0.0,0,0;                              577P    306
120,573,577,0.0,6.283185307,0,0;                                     579P    307
124,-0.8775825619,0.4794255386,0.0,0.0,-0.4794255386,                581P    308
-0.8775825619,0.0,0.0,0.0,0.0,1.0,52.0,0,0;                          581P    309
100,0.0,0.0,0.0,17.68869696,0.0,-17.68869696,0.0,0,0;                583P    310
124,0.5813967038,0.6573652149,-0.4794255386,0.0,0.3176184669,        585P    311
0.3591202536,0.8775825619,0.0,0.7490636704,-0.6624980133,0.0,        585P    312
32.0,0,0;                                                            585P    313
100,0.0,0.0,0.0,26.7,0.0,17.68869696,20.0,0,0;                       587P    314
124,0.8775825619,0.4794255386,0.0,0.0,0.4794255386,                  589P    315
-0.8775825619,0.0,0.0,0.0,0.0,-1.0,32.0,0,0;                         589P    316
100,0.0,0.0,0.0,26.7,0.0,23.4314544,12.80066188,0,0;                 591P    317
124,1.0,0.0,0.0,0.0,0.0,-1.0,0.0,0.0,0.0,0.0,-1.0,32.0,0,0;          593P    318
100,0.0,0.0,0.0,26.7,0.0,-23.4314544,12.80066188,0,0;                595P    319
124,-0.8775825619,0.0,-0.4794255386,0.0,-0.4794255386,0.0,           597P    320
0.8775825619,0.0,0.0,1.0,0.0,32.0,0,0;                               597P    321
100,0.0,0.0,0.0,26.7,0.0,17.68869696,20.0,0,0;                       599P    322
102,5,583,587,591,595,599,0,0;                                       601P    323
142,0,579,0,601,2,0,0;                                               603P    324
144,579,1,0,603,0,0;                                                 605P    325
110,0.0,0.0,32.0,-0.8775825619,-0.4794255386,32.0,0,0;               607P    326
124,0.8775825619,0.0,0.4794255386,0.0,0.4794255386,0.0,              609P    327
-0.8775825619,0.0,0.0,1.0,0.0,32.0,0,0;                              609P    328
100,0.0,0.0,0.0,26.7,0.0,-26.7,0.0,0,0;                              611P    329
120,607,611,0.0,6.283185307,0,0;                                     613P    330
124,0.8775825619,-0.4794255386,0.0,0.0,0.4794255386,                 615P    331
0.8775825619,0.0,0.0,0.0,0.0,1.0,52.0,0,0;                           615P    332
100,0.0,0.0,0.0,17.68869696,0.0,-17.68869696,0.0,0,0;                617P    333
124,-0.5813967038,-0.6573652149,0.4794255386,0.0,-0.3176184669,      619P    334
-0.3591202536,-0.8775825619,0.0,0.7490636704,-0.6624980133,0.0,      619P    335
32.0,0,0;                                                            619P    336
100,0.0,0.0,0.0,26.7,0.0,17.68869696,20.0,0,0;                       621P    337
124,-0.8775825619,-0.4794255386,0.0,0.0,-0.4794255386,               623P    338
0.8775825619,0.0,0.0,0.0,0.0,-1.0,32.0,0,0;                          623P    339
100,0.0,0.0,0.0,26.7,0.0,23.4314544,12.80066188,0,0;                 625P    340
124,-1.0,0.0,0.0,0.0,0.0,1.0,0.0,0.0,0.0,0.0,-1.0,32.0,0,0;          627P    341
100,0.0,0.0,0.0,26.7,0.0,-23.4314544,12.80066188,0,0;                629P    342
124,0.8775825619,0.0,0.4794255386,0.0,0.4794255386,0.0,              631P    343
-0.8775825619,0.0,0.0,1.0,0.0,32.0,0,0;                              631P    344
100,0.0,0.0,0.0,26.7,0.0,17.68869696,20.0,0,0;                       633P    345
102,5,617,621,625,629,633,0,0;                                       635P    346
142,0,613,0,635,2,0,0;                                               637P    347
144,613,1,0,637,0,0;                                                 639P    348
108,0.0,0.0,1.0,52.0,0,35.5,0.0,52.0,1.0,0,0;                        641P    349
124,-0.8775825619,-0.4794255386,0.0,0.0,-0.4794255386,               643P    350
0.8775825619,0.0,0.0,0.0,0.0,-1.0,52.0,0,0;                          643P    351
100,0.0,0.0,0.0,17.68869696,0.0,-17.68869696,0.0,0,0;                645P    352
124,0.8775825619,0.4794255386,0.0,0.0,0.4794255386,                  647P    353
-0.8775825619,0.0,0.0,0.0,0.0,-1.0,52.0,0,0;                         647P    354
100,0.0,0.0,0.0,17.68869696,0.0,-17.68869696,0.0,0,0;                649P    355
102,2,645,649,0,0;                                                   651P    356
142,0,641,0,651,2,0,0;                                               653P    357
124,-0.8775825619,0.4794255386,0.0,0.0,-0.4794255386,                655P    358
-0.8775825619,0.0,0.0,0.0,0.0,1.0,52.0,0,0;                          655P    359
100,0.0,0.0,0.0,14.49448171,0.0,-14.49448171,0.0,0,0;                657P    360
124,0.8775825619,-0.4794255386,0.0,0.0,0.4794255386,                 659P    361
0.8775825619,0.0,0.0,0.0,0.0,1.0,52.0,0,0;                           659P    362
100,0.0,0.0,0.0,14.49448171,0.0,-14.49448171,0.0,0,0;                661P    363
102,2,657,661,0,0;                                                   663P    364
142,0,641,0,663,2,0,0;                                               665P    365
144,641,1,1,653,665,0,0;                                             667P    366
S      1G      4D    668P    366                                        T      1
